<?xml version="1.0" encoding="utf-8"?>
<!-- Generator: Adobe Illustrator 24.2.1, SVG Export Plug-In . SVG Version: 6.00 Build 0)  -->
<svg version="1.1" id="Layer_1" xmlns="http://www.w3.org/2000/svg" xmlns:xlink="http://www.w3.org/1999/xlink" x="0px" y="0px"
	 viewBox="0 0 873 578.1" style="enable-background:new 0 0 873 578.1;" xml:space="preserve">
<style type="text/css">
	.st0{fill:#0071C5;}
</style>
<g>
	<path class="st0" d="M789,207C757.3,51.8,456,42,261.8,160.2v13.1c194-99.7,469.2-99.2,494.1,43.7c8.4,47.3-18.2,96.5-65.8,124.8
		v37.1C747.4,358.2,806.1,290.1,789,207 M436.1,478.6c-134,12.4-273.6-7.1-293.2-111.8c-9.6-51.5,14.1-106.3,45.2-140.3v-18.2
		c-56.2,49.3-86.6,111.7-69.1,185.2c22.4,94.5,142.3,148.1,325.2,130.3c72.4-7,167.1-30.3,233-66.5v-51.4
		C617.3,441.5,518.4,471,436.1,478.6"/>
	<path class="st0" d="M666.3,184.4h-35.1v156.4c0,18.3,8.9,34.3,35.1,36.8V184.4z M248.1,241.6h-35.2v102.2
		c0,18.3,8.9,34.4,35.2,36.8V241.6z M212.9,222.5H248v-33.3h-35.1V222.5z M458.4,378.9c-28.4,0-40.4-19.7-40.4-39.2V203.9h34.7v37.6
		H479v28.1h-26.3v68c0,8,3.8,12.4,12,12.4h14.2v29L458.4,378.9z M550.8,268c-11.9,0-21,6.1-25,14.4c-2.2,5-3.1,8.9-3.3,14.9h53.7
		C575.4,282.4,568.7,268,550.8,268 M522.5,321.2c0,17.8,11.1,30.9,30.8,30.9c15.4,0,23.1-4.3,32-13.2l21.6,20.5
		c-13.9,13.7-28.2,21.9-53.7,21.9c-33.3,0-65.2-18.2-65.2-71.1c0-45.3,27.9-71,64.4-71c37.2,0,58.6,30,58.6,69.4v12.5L522.5,321.2
		 M342.7,269.6c10.2,0,14.5,5.1,14.5,13.2v96.3h34.8v-96.4c0-19.5-10.3-41.1-41-41.1l-71.9-0.1v137.6H314V269.6H342.7z"/>
</g>
</svg>
