<?xml version="1.0" encoding="utf-8"?>
<!-- Generator: Adobe Illustrator 24.2.1, SVG Export Plug-In . SVG Version: 6.00 Build 0)  -->
<svg version="1.1" id="Layer_1" xmlns="http://www.w3.org/2000/svg" xmlns:xlink="http://www.w3.org/1999/xlink" x="0px" y="0px"
	 viewBox="0 0 2332.6 625" style="enable-background:new 0 0 2332.6 625;" xml:space="preserve">
<path d="M2023.8,578.4L2170,174.9c0,0-109.6,0-219.3,22.5l-137.8,381H2023.8z M1998.5,66.7l-28.1,77.3
	c109.6-22.5,219.3-22.5,219.3-22.5l28.1-77.3C2217.8,44.2,2108.1,44.2,1998.5,66.7 M1236.5,482.8c66.1,12.7,133.5,18.3,202.4,18.3
	c71.7,0,122.3-15.5,127.9-64.7c2.8-22.5-19.7-39.4-59-61.9c-45-25.3-84.3-38-123.7-64.7c-39.4-26.7-56.2-67.5-43.6-112.5
	c15.5-52,52-81.5,106.8-109.6c64.7-32.3,115.3-45,240.4-45c78.7,0,154.6,7,229.1,22.5l-26.7,73.1c-66.1-12.7-133.5-18.3-202.4-18.3
	c-71.7,0-122.3,15.5-127.9,64.7c-2.8,22.5,19.7,39.4,59,61.9c45,25.3,84.3,38,123.7,64.7s56.2,67.5,43.6,112.5
	c-15.5,52-52,81.5-106.8,109.6c-64.7,32.3-115.3,45-240.4,45c-78.7,0-154.6-7-229.1-22.5L1236.5,482.8z M918.8,578.4l122.3-336
	c40.8-112.5-108.2-71.7-142-45c-26.7,19.7-74.5,66.1-91.4,115.3l-97,267.1H499.9l122.3-337.4c40.8-112.5-108.2-71.7-142-45
	c-26.7,19.7-74.5,66.1-91.4,115.3l-97,267.1H81L275,44.2c67.5,0,104,15.5,133.5,45c11.2,11.2,18.3,25.3,22.5,40.8
	c39.4-23.9,74.5-42.2,98.4-50.6c43.6-16.9,98.4-35.2,165.9-35.2s104,15.5,133.5,45c11.2,11.2,18.3,25.3,22.5,40.8
	c39.4-23.9,74.5-42.2,98.4-50.6c43.6-16.9,98.4-35.1,165.9-35.1s104,15.5,133.5,45c30.9,29.5,29.5,84.3,18.3,115.3l-137.8,373.9
	H918.8V578.4z"/>
</svg>
