<?xml version="1.0" encoding="utf-8"?>
<!-- Generator: Adobe Illustrator 24.2.1, SVG Export Plug-In . SVG Version: 6.00 Build 0)  -->
<svg version="1.1"
	 id="Layer_1" text-rendering="geometricPrecision" image-rendering="optimizeQuality" shape-rendering="geometricPrecision"
	 xmlns="http://www.w3.org/2000/svg" xmlns:xlink="http://www.w3.org/1999/xlink" x="0px" y="0px" viewBox="0 0 1598.3 937.6"
	 style="enable-background:new 0 0 1598.3 937.6;" xml:space="preserve">
<style type="text/css">
	.st0{fill-rule:evenodd;clip-rule:evenodd;fill:#E50007;}
</style>
<path class="st0" d="M929.8,184.2c-2,0.6-2.5,1.5-4.6,3.3c-1.6,1.4-3,2.4-4.6,3.7c-3.6,3.1-5.7,5-8.9,7.6
	c-15.7,13.2-37,33.7-52.3,48.1c-23.8,22.3-45.3,43.8-68.3,66.1c-43.2,41.9-92.1,92.2-135.2,132.5c-35.7,33.4-66.3,63.3-103.6,96.7
	c-14.2,12.8-23.2,24.4-42.7,25c-32,1.1-74.3-26.2-95.9-38.5c-18.9-10.8-69-40.3-93.2-41.1l17.7,24.3c12.7,19.3,34,61.4,44.2,81.9
	c35.1,70.4,82.6,144.1,142.9,193.1c15.4,12.5,29.4,23.1,49,34.9c8.6,5.2,17.4,9.5,27,15c3.3,1.9,26.5,12.7,29.3,12.7
	c-6.3-6.3-12.8-14.1-18-20.2c-23-27.1-74.1-79.6-89.5-106.4c-12.9-22.5-15.8-36.3-1.5-58.9c16.4-25.8,54.6-57.8,78.5-78.3
	c58.3-49.9,110.9-95.1,171.9-142.4c28.9-22.4,59-45.3,90-67.5c30.5-21.8,61.2-42.7,93-63.8l48.1-30.6c4.5-2.5,48.3-28.6,48.9-29.5
	l42.8-23.6c14.4-8.1,28.4-15,43.6-23.2c44.7-24.1,133.5-63.3,184.4-81.3c16.7-5.9,32.6-11.5,49.5-17.2l50.7-15.8
	c-4.1-2.1-60.1-2.7-70.4-2.7c-41.4,0-67,1.1-106.5,4.3c-30.3,2.4-86.7,8.6-114.3,15.3c-5,1.2-10.8,1.7-15.8,3
	c-9.6,2.5-20.5,4.2-30.3,6.7c-20.2,5-38.5,10.7-57.5,16.3c-19.5,5.9-37.2,12.8-54.6,19.9C963.6,157.9,932.4,178.7,929.8,184.2
	L929.8,184.2z M1335,284.4l36.8-18.8c12.8-6.1,26-13.1,38-18.9c24.4-11.9,38.4-50.5,38.1-75.3c-4.3,0.2-21.9,8.5-26.6,10.2
	c-3.3,1.2-6.3,2.2-9.3,3.5c-21.8,9.3-50.8,20.2-71.3,29.9c-6,2.8-11.8,5.2-17.8,7.7c-4.8,2-15.3,6.2-17.2,8.6
	c-6.6-0.3-139.8,65.7-156.3,74.3c-23.6,12.2-53.4,26.9-76.1,39.5c-2.7,1.5-72,38.2-74.8,41.7c-4.6,0.7-52,28.9-59.6,33.2
	c-94.1,53.1-198.1,119.7-288.2,180.8c-25,17-57,39.2-82.1,58.2l-20.2,15c-2.4,1.8-5,2.9-6.4,5.6c8.9,7.7,68.4,32.2,82.6,37.3
	c79.6,28.7,154.1,48.7,237.9,63.1l53.1,8.1l41.9,3.7l-34.1-3c6.5,0.7,13,1.8,19.3,2.4c9.3,0.9,18.7,1.6,28.3,2.6
	c18.2,1.8,39.2,3.1,57.9,3.4c23.2,0.4,36,1.6,55-6.4c14.8-6.3,26.7-14,38.5-23c43.6-33.5,82.6-85.8,113.5-133.2
	c32.4-49.6,61.7-105,86.9-159.8c12.8-28,24.9-57.1,36.2-86.8c5.8-15,10.7-29.6,15.9-45.6c2.8-8.9,13.3-41.1,14.1-48.4
	c-11.9,1.6-220.2,114-240,124.7c-26.9,14.5-52.7,29.5-78.7,43.6c-25.4,13.7-52.2,30.1-77.4,44c-51.3,28.4-102.9,60.2-154,89.8
	c-8.8,5.1-73.9,43.2-76.3,45.8c4.4-0.7,211-89.4,216-91.5c9.8-4.1,212.6-91.1,215.9-91.2c-1.1,4.7-13.7,28.1-16.9,35
	c-5.3,11.5-11.6,24.5-17.4,36c-32.7,64.7-68.2,142.4-139.6,171.1l-4.3,2.6c-3.8,0.1-14.3,4.3-18.9,5.6c-6.9,1.9-13.7,3.3-20.6,4.6
	c-32.9,6.7-82.6,3.3-117-2.1c-39.1-6.1-66.5-13-104.4-22.2c-9-2.2-74.4-20.6-78.3-23.1c2.1-3.7,39.6-27.7,42.8-30
	c72.4-50.3,192.7-124.3,270.8-168.8c8.3-4.7,16-9,23.6-13.3c6.3-3.6,17.8-9.6,22.9-13.3l36.6-20.1c12.4-6.8,23.7-12.8,36.7-20.2
	c24.6-14.1,49.6-25.8,73.9-39.5C1187.9,359.7,1326.4,286.9,1335,284.4L1335,284.4z M393.7,664.2c-1.5-3.1-26.4-29.6-31.4-35.1
	c-31.5-35.2-62.1-68-93.8-105c-22.1-25.8-41.8-49.5-60.5-72.2c-7.9-9.5-51-63.6-57.5-74.7c-0.8,2.1,10,46.5,11.6,52.3
	c2.4,8.9,4.4,17.1,6.8,26.2c24.5,89.1,48.9,122.9,133.3,165.9C312.6,626.9,388.1,663.5,393.7,664.2L393.7,664.2z"/>
</svg>
